<svg width="228" height="69" viewBox="0 0 228 69" fill="none" xmlns="http://www.w3.org/2000/svg">
<path d="M4.946 55L22.064 17.2H27.41L44.582 55H38.912L23.63 20.224H25.79L10.508 55H4.946ZM12.236 45.55L13.694 41.23H34.97L36.536 45.55H12.236ZM85.3208 26.11C87.6248 26.11 89.6588 26.56 91.4228 27.46C93.1868 28.36 94.5548 29.728 95.5268 31.564C96.5348 33.4 97.0388 35.722 97.0388 38.53V55H91.8548V39.124C91.8548 36.352 91.2068 34.264 89.9108 32.86C88.6148 31.456 86.7968 30.754 84.4568 30.754C82.7288 30.754 81.2168 31.114 79.9208 31.834C78.6248 32.554 77.6168 33.616 76.8968 35.02C76.2128 36.424 75.8708 38.17 75.8708 40.258V55H70.6868V39.124C70.6868 36.352 70.0388 34.264 68.7428 32.86C67.4828 31.456 65.6648 30.754 63.2888 30.754C61.5968 30.754 60.1028 31.114 58.8068 31.834C57.5108 32.554 56.5028 33.616 55.7828 35.02C55.0628 36.424 54.7028 38.17 54.7028 40.258V55H49.5188V26.38H54.4868V33.994L53.6768 32.05C54.5768 30.178 55.9628 28.72 57.8348 27.676C59.7068 26.632 61.8848 26.11 64.3688 26.11C67.1048 26.11 69.4628 26.794 71.4428 28.162C73.4228 29.494 74.7188 31.528 75.3308 34.264L73.2248 33.4C74.0888 31.204 75.6008 29.44 77.7608 28.108C79.9208 26.776 82.4408 26.11 85.3208 26.11ZM121.805 55.324C119.429 55.324 117.251 54.784 115.271 53.704C113.327 52.588 111.761 50.95 110.573 48.79C109.421 46.63 108.845 43.93 108.845 40.69C108.845 37.45 109.403 34.75 110.519 32.59C111.671 30.43 113.219 28.81 115.163 27.73C117.143 26.65 119.357 26.11 121.805 26.11C124.613 26.11 127.097 26.722 129.257 27.946C131.417 29.17 133.127 30.88 134.387 33.076C135.647 35.236 136.277 37.774 136.277 40.69C136.277 43.606 135.647 46.162 134.387 48.358C133.127 50.554 131.417 52.264 129.257 53.488C127.097 54.712 124.613 55.324 121.805 55.324ZM106.631 65.476V26.38H111.599V34.102L111.275 40.744L111.815 47.386V65.476H106.631ZM121.373 50.788C123.209 50.788 124.847 50.374 126.287 49.546C127.763 48.718 128.915 47.548 129.743 46.036C130.607 44.488 131.039 42.706 131.039 40.69C131.039 38.638 130.607 36.874 129.743 35.398C128.915 33.886 127.763 32.716 126.287 31.888C124.847 31.06 123.209 30.646 121.373 30.646C119.573 30.646 117.935 31.06 116.459 31.888C115.019 32.716 113.867 33.886 113.003 35.398C112.175 36.874 111.761 38.638 111.761 40.69C111.761 42.706 112.175 44.488 113.003 46.036C113.867 47.548 115.019 48.718 116.459 49.546C117.935 50.374 119.573 50.788 121.373 50.788ZM156.238 55.324C153.178 55.324 150.478 54.694 148.138 53.434C145.834 52.174 144.034 50.446 142.738 48.25C141.478 46.054 140.848 43.534 140.848 40.69C140.848 37.846 141.46 35.326 142.684 33.13C143.944 30.934 145.654 29.224 147.814 28C150.01 26.74 152.476 26.11 155.212 26.11C157.984 26.11 160.432 26.722 162.556 27.946C164.68 29.17 166.336 30.898 167.524 33.13C168.748 35.326 169.36 37.9 169.36 40.852C169.36 41.068 169.342 41.32 169.306 41.608C169.306 41.896 169.288 42.166 169.252 42.418H144.898V38.692H166.552L164.446 39.988C164.482 38.152 164.104 36.514 163.312 35.074C162.52 33.634 161.422 32.518 160.018 31.726C158.65 30.898 157.048 30.484 155.212 30.484C153.412 30.484 151.81 30.898 150.406 31.726C149.002 32.518 147.904 33.652 147.112 35.128C146.32 36.568 145.924 38.224 145.924 40.096V40.96C145.924 42.868 146.356 44.578 147.22 46.09C148.12 47.566 149.362 48.718 150.946 49.546C152.53 50.374 154.348 50.788 156.4 50.788C158.092 50.788 159.622 50.5 160.99 49.924C162.394 49.348 163.618 48.484 164.662 47.332L167.524 50.68C166.228 52.192 164.608 53.344 162.664 54.136C160.756 54.928 158.614 55.324 156.238 55.324ZM189.356 55.324C186.296 55.324 183.596 54.694 181.256 53.434C178.952 52.174 177.152 50.446 175.856 48.25C174.596 46.054 173.966 43.534 173.966 40.69C173.966 37.846 174.578 35.326 175.802 33.13C177.062 30.934 178.772 29.224 180.932 28C183.128 26.74 185.594 26.11 188.33 26.11C191.102 26.11 193.55 26.722 195.674 27.946C197.798 29.17 199.454 30.898 200.642 33.13C201.866 35.326 202.478 37.9 202.478 40.852C202.478 41.068 202.46 41.32 202.424 41.608C202.424 41.896 202.406 42.166 202.37 42.418H178.016V38.692H199.67L197.564 39.988C197.6 38.152 197.222 36.514 196.43 35.074C195.638 33.634 194.54 32.518 193.136 31.726C191.768 30.898 190.166 30.484 188.33 30.484C186.53 30.484 184.928 30.898 183.524 31.726C182.12 32.518 181.022 33.652 180.23 35.128C179.438 36.568 179.042 38.224 179.042 40.096V40.96C179.042 42.868 179.474 44.578 180.338 46.09C181.238 47.566 182.48 48.718 184.064 49.546C185.648 50.374 187.466 50.788 189.518 50.788C191.21 50.788 192.74 50.5 194.108 49.924C195.512 49.348 196.736 48.484 197.78 47.332L200.642 50.68C199.346 52.192 197.726 53.344 195.782 54.136C193.874 54.928 191.732 55.324 189.356 55.324ZM209.731 55V26.38H214.699V34.156L214.213 32.212C215.005 30.232 216.337 28.72 218.209 27.676C220.081 26.632 222.385 26.11 225.121 26.11V31.132C224.905 31.096 224.689 31.078 224.473 31.078C224.293 31.078 224.113 31.078 223.933 31.078C221.161 31.078 218.965 31.906 217.345 33.562C215.725 35.218 214.915 37.612 214.915 40.744V55H209.731Z" fill="#24272C"/>
<path d="M0.5 19.3785V52C0.5 55.5898 3.41015 58.5 7 58.5H39C42.5898 58.5 45.5 55.5899 45.5 52V19.3785C45.5 17.229 44.4373 15.2184 42.6612 14.0077L26.6612 3.10086C24.4526 1.5953 21.5474 1.5953 19.3388 3.10086L3.33883 14.0077C1.56269 15.2184 0.5 17.229 0.5 19.3785Z" fill="#D6B57F" stroke="#24272C"/>
<path d="M37 50C36.7049 47.7371 34.7482 39.1067 33.9194 36.4897C32.763 32.8382 32.6467 31.1329 31.2086 28.4565C29.1918 24.7032 29 24.5 26.4029 21.0319C24 17 20.1867 19.7415 19.2559 22.4924C18.1903 25.6421 16.9169 26.9452 16.0521 30.1829C15.5619 32.0184 14.5251 35.3994 14 37.5C13.5 39.5 12.7523 42 12.3654 43.543C12 45 12.1286 44.5332 11.6008 46.4487C11.0729 48.3641 11.5 47.5 11 50" stroke="#24272C" stroke-width="6" stroke-linecap="round"/>
</svg>
