<svg width="20" height="20" viewBox="0 0 20 20" fill="none" xmlns="http://www.w3.org/2000/svg">
<path d="M20 10C20 15.5228 15.5228 20 10 20C4.47715 20 0 15.5228 0 10C0 4.47715 4.47715 0 10 0C15.5228 0 20 4.47715 20 10Z" fill="#DF1A1A"/>
<path fill-rule="evenodd" clip-rule="evenodd" d="M13.6787 7.03091C13.8569 7.20815 13.8576 7.49625 13.6804 7.6744L7.68983 13.6958C7.51259 13.8739 7.22449 13.8747 7.04634 13.6974C6.86818 13.5202 6.86744 13.2321 7.04468 13.0539L13.0352 7.03256C13.2125 6.85441 13.5006 6.85367 13.6787 7.03091Z" fill="white"/>
<path fill-rule="evenodd" clip-rule="evenodd" d="M7.01471 7.04174C7.19171 6.86336 7.47981 6.86224 7.6582 7.03925L13.6874 13.0219C13.8658 13.1989 13.8669 13.487 13.6899 13.6654C13.5129 13.8438 13.2248 13.8449 13.0464 13.6679L7.0172 7.68524C6.83882 7.50823 6.8377 7.22013 7.01471 7.04174Z" fill="white"/>
</svg>
