<svg width="35" height="35" viewBox="0 0 35 35" fill="black" xmlns="http://www.w3.org/2000/svg">
<path fill-rule="evenodd" clip-rule="evenodd" d="M5.54157 5.69199C4.33831 6.29362 4.0105 6.92241 4.0105 7.29171C4.0105 7.66101 4.33831 8.28979 5.54157 8.89142C6.67941 9.46034 8.32786 9.84379 10.2084 9.84379C12.089 9.84379 13.7374 9.46034 14.8753 8.89142C16.0785 8.28979 16.4063 7.66101 16.4063 7.29171C16.4063 6.92241 16.0785 6.29362 14.8753 5.69199C13.7374 5.12307 12.089 4.73962 10.2084 4.73962C8.32786 4.73962 6.67941 5.12307 5.54157 5.69199ZM4.56329 3.73543C6.06451 2.98482 8.06189 2.55212 10.2084 2.55212C12.3549 2.55212 14.3523 2.98482 15.8535 3.73543C17.2893 4.45334 18.5938 5.64747 18.5938 7.29171C18.5938 8.93594 17.2893 10.1301 15.8535 10.848C14.3523 11.5986 12.3549 12.0313 10.2084 12.0313C8.06189 12.0313 6.06451 11.5986 4.56329 10.848C3.12748 10.1301 1.823 8.93594 1.823 7.29171C1.823 5.64747 3.12748 4.45334 4.56329 3.73543Z" fill="#000000"/>
<path fill-rule="evenodd" clip-rule="evenodd" d="M2.9165 5.46875C3.52057 5.46875 4.01025 5.95844 4.01025 6.5625H2.9165H1.82275C1.82275 5.95844 2.31244 5.46875 2.9165 5.46875ZM17.4998 6.5625L18.5936 6.56254V11.6667C18.5936 13.3109 17.2891 14.505 15.8533 15.2229C14.3521 15.9735 12.3547 16.4063 10.2082 16.4063C8.06165 16.4063 6.06427 15.9735 4.56304 15.2229C3.12724 14.505 1.82275 13.3109 1.82275 11.6667V6.5625H2.9165H4.01025V11.6667C4.01025 12.036 4.33806 12.6647 5.54132 13.2664C6.67916 13.8353 8.32761 14.2188 10.2082 14.2188C12.0887 14.2188 13.7372 13.8353 14.875 13.2664C16.0783 12.6647 16.4061 12.036 16.4061 11.6667V6.56254L17.4998 6.5625ZM17.4998 6.5625L18.5936 6.56254C18.5936 5.95848 18.1039 5.46875 17.4998 5.46875C16.8958 5.46875 16.4061 5.95848 16.4061 6.56254L17.4998 6.5625Z" fill="#1C1B1E"/>
<path fill-rule="evenodd" clip-rule="evenodd" d="M2.9165 9.84375C3.52057 9.84375 4.01025 10.3334 4.01025 10.9375H2.9165H1.82275C1.82275 10.3334 2.31244 9.84375 2.9165 9.84375ZM17.4998 10.9375L18.5936 10.9375V16.0417C18.5936 17.6859 17.2891 18.88 15.8533 19.5979C14.3521 20.3485 12.3547 20.7813 10.2082 20.7813C8.06165 20.7813 6.06427 20.3485 4.56304 19.5979C3.12724 18.88 1.82275 17.6859 1.82275 16.0417V10.9375H2.9165H4.01025V16.0417C4.01025 16.411 4.33806 17.0397 5.54132 17.6414C6.67916 18.2103 8.32761 18.5938 10.2082 18.5938C12.0887 18.5938 13.7372 18.2103 14.875 17.6414C16.0783 17.0397 16.4061 16.411 16.4061 16.0417V10.9375L17.4998 10.9375ZM17.4998 10.9375L18.5936 10.9375C18.5936 10.3335 18.1039 9.84375 17.4998 9.84375C16.8958 9.84375 16.4061 10.3335 16.4061 10.9375L17.4998 10.9375Z" fill="#1C1B1E"/>
<path fill-rule="evenodd" clip-rule="evenodd" d="M2.9165 14.219C3.52057 14.219 4.01025 14.7087 4.01025 15.3127H2.9165H1.82275C1.82275 14.7087 2.31244 14.219 2.9165 14.219ZM17.4998 15.3127L18.5936 15.3128V20.4169C18.5936 22.0611 17.2891 23.2553 15.8533 23.9732C14.3521 24.7238 12.3547 25.1565 10.2082 25.1565C8.06165 25.1565 6.06427 24.7238 4.56304 23.9732C3.12724 23.2553 1.82275 22.0611 1.82275 20.4169V15.3127H2.9165H4.01025V20.4169C4.01025 20.7862 4.33806 21.415 5.54132 22.0166C6.67916 22.5855 8.32761 22.969 10.2082 22.969C12.0887 22.969 13.7372 22.5855 14.875 22.0166C16.0783 21.415 16.4061 20.7862 16.4061 20.4169V15.3128L17.4998 15.3127ZM17.4998 15.3127L18.5936 15.3128C18.5936 14.7087 18.1039 14.219 17.4998 14.219C16.8958 14.219 16.4061 14.7087 16.4061 15.3128L17.4998 15.3127Z" fill="#1C1B1E"/>
<path fill-rule="evenodd" clip-rule="evenodd" d="M2.9165 18.594C3.52057 18.594 4.01025 19.0837 4.01025 19.6877H2.9165H1.82275C1.82275 19.0837 2.31244 18.594 2.9165 18.594ZM17.4998 19.6877L18.5936 19.6878V24.7919C18.5936 26.4361 17.2891 27.6303 15.8533 28.3482C14.3521 29.0988 12.3547 29.5315 10.2082 29.5315C8.06165 29.5315 6.06427 29.0988 4.56304 28.3482C3.12724 27.6303 1.82275 26.4361 1.82275 24.7919V19.6877H2.9165H4.01025V24.7919C4.01025 25.1612 4.33806 25.79 5.54132 26.3916C6.67916 26.9605 8.32761 27.344 10.2082 27.344C12.0887 27.344 13.7372 26.9605 14.875 26.3916C16.0783 25.79 16.4061 25.1612 16.4061 24.7919V19.6878L17.4998 19.6877ZM17.4998 19.6877L18.5936 19.6878C18.5936 19.0837 18.1039 18.594 17.4998 18.594C16.8958 18.594 16.4061 19.0837 16.4061 19.6878L17.4998 19.6877Z" fill="#1C1B1E"/>
<path fill-rule="evenodd" clip-rule="evenodd" d="M20.1248 14.4421C18.9216 15.0437 18.5937 15.6725 18.5937 16.0418C18.5937 16.4111 18.9216 17.0399 20.1248 17.6415C21.2627 18.2105 22.9111 18.5939 24.7917 18.5939C26.6722 18.5939 28.3207 18.2105 29.4585 17.6415C30.6618 17.0399 30.9896 16.4111 30.9896 16.0418C30.9896 15.6725 30.6618 15.0437 29.4585 14.4421C28.3207 13.8732 26.6722 13.4897 24.7917 13.4897C22.9111 13.4897 21.2627 13.8732 20.1248 14.4421ZM19.1465 12.4856C20.6478 11.7349 22.6451 11.3022 24.7917 11.3022C26.9382 11.3022 28.9356 11.7349 30.4368 12.4856C31.8726 13.2035 33.1771 14.3976 33.1771 16.0418C33.1771 17.6861 31.8726 18.8802 30.4368 19.5981C28.9356 20.3487 26.9382 20.7814 24.7917 20.7814C22.6451 20.7814 20.6478 20.3487 19.1465 19.5981C17.7107 18.8802 16.4062 17.6861 16.4062 16.0418C16.4062 14.3976 17.7107 13.2035 19.1465 12.4856Z" fill="#1C1B1E"/>
<path fill-rule="evenodd" clip-rule="evenodd" d="M17.5 14.219C18.1041 14.219 18.5937 14.7087 18.5937 15.3127H17.5H16.4062C16.4062 14.7087 16.8959 14.219 17.5 14.219ZM32.0833 15.3127L33.1771 15.3128V20.4169C33.1771 22.0611 31.8726 23.2553 30.4368 23.9732C28.9356 24.7238 26.9382 25.1565 24.7917 25.1565C22.6452 25.1565 20.6478 24.7238 19.1466 23.9732C17.7108 23.2553 16.4062 22.0611 16.4062 20.4169V15.3127H17.5H18.5937V20.4169C18.5937 20.7862 18.9216 21.415 20.1248 22.0166C21.2627 22.5855 22.9111 22.969 24.7917 22.969C26.6722 22.969 28.3207 22.5855 29.4585 22.0166C30.6618 21.415 30.9896 20.7862 30.9896 20.4169V15.3128L32.0833 15.3127ZM32.0833 15.3127L33.1771 15.3128C33.1771 14.7087 32.6874 14.219 32.0833 14.219C31.4793 14.219 30.9896 14.7087 30.9896 15.3128L32.0833 15.3127Z" fill="#1C1B1E"/>
<path fill-rule="evenodd" clip-rule="evenodd" d="M17.5 18.594C18.1041 18.594 18.5938 19.0837 18.5938 19.6877H17.5H16.4062C16.4062 19.0837 16.8959 18.594 17.5 18.594ZM32.0833 19.6877L33.1771 19.6878V24.7919C33.1771 26.4361 31.8726 27.6303 30.4368 28.3482C28.9356 29.0988 26.9382 29.5315 24.7917 29.5315C22.6452 29.5315 20.6478 29.0988 19.1466 28.3482C17.7108 27.6303 16.4062 26.4361 16.4062 24.7919V19.6877H17.5H18.5938V24.7919C18.5938 25.1612 18.9216 25.79 20.1248 26.3916C21.2627 26.9605 22.9111 27.344 24.7917 27.344C26.6722 27.344 28.3207 26.9605 29.4585 26.3916C30.6618 25.79 30.9896 25.1612 30.9896 24.7919V19.6878L32.0833 19.6877ZM32.0833 19.6877L33.1771 19.6878C33.1771 19.0837 32.6874 18.594 32.0833 18.594C31.4793 18.594 30.9896 19.0837 30.9896 19.6878L32.0833 19.6877Z" fill="#1C1B1E"/>
</svg>
