<svg width="23" height="25" viewBox="0 0 23 25" fill="none" xmlns="http://www.w3.org/2000/svg">
<path d="M21.85 9.52345C22.001 9.52349 22.1506 9.49272 22.2901 9.43291C22.4297 9.3731 22.5565 9.2854 22.6633 9.17485C22.7701 9.06429 22.8548 8.93303 22.9125 8.78858C22.9703 8.64412 23 8.4893 23 8.33294V4.76143C23.0001 4.51164 22.9242 4.26815 22.7831 4.06552C22.642 3.86289 22.4428 3.7114 22.2139 3.63255L11.8639 0.0610364C11.6277 -0.0203455 11.3723 -0.0203455 11.1361 0.0610364L0.786128 3.63255C0.557167 3.7114 0.358005 3.86289 0.216897 4.06552C0.0757887 4.26815 -9.90514e-05 4.51164 9.70303e-08 4.76143V8.33294C-3.91864e-05 8.4893 0.0296797 8.64412 0.0874587 8.78858C0.145238 8.93303 0.229945 9.06429 0.33674 9.17485C0.443535 9.2854 0.570325 9.3731 0.709868 9.43291C0.84941 9.49272 0.998969 9.52349 1.15 9.52345H2.3V18.0764C1.62925 18.3209 1.04807 18.7745 0.636257 19.3747C0.224445 19.9749 0.00218785 20.6923 9.70303e-08 21.4285V23.8095C-3.91864e-05 23.9658 0.0296797 24.1207 0.0874587 24.2651C0.145238 24.4096 0.229945 24.5408 0.33674 24.6514C0.443535 24.762 0.570325 24.8496 0.709868 24.9095C0.84941 24.9693 0.998969 25 1.15 25H21.85C22.001 25 22.1506 24.9693 22.2901 24.9095C22.4297 24.8496 22.5565 24.762 22.6633 24.6514C22.7701 24.5408 22.8548 24.4096 22.9125 24.2651C22.9703 24.1207 23 23.9658 23 23.8095V21.4285C22.9978 20.6923 22.7756 19.9749 22.3637 19.3747C21.9519 18.7745 21.3708 18.3209 20.7 18.0764V9.52345H21.85ZM21.7625 23.9055L1.35004 23.8095V21.4285C1.35035 21.1128 1.42194 20.643 1.63754 20.4198C1.85314 20.1966 3.14509 19.375 3.45 19.3747H19.75C20.0549 19.375 21.2594 20.0238 21.475 20.247C21.6906 20.4702 21.7622 21.1128 21.7625 21.4285V23.9055ZM3.45 17.857V9.43291L6.9 9.52345V17.857H3.45ZM8.25004 17.857V9.52345H14.8625V18.0764L8.25004 17.857ZM16.1 17.857V9.52345H19.55V17.857H16.1ZM1.15 8.33294V4.76143L11.1361 1.03968L22.2139 4.76143V8.33294H1.15Z" fill="black"/>
</svg>
