<svg width="18" height="20" viewBox="0 0 18 20" fill="none" xmlns="http://www.w3.org/2000/svg">
<path d="M14.875 8.08325C14.875 13.0416 8.5 17.2916 8.5 17.2916C8.5 17.2916 2.125 13.0416 2.125 8.08325C2.125 6.3925 2.79665 4.77099 3.99219 3.57545C5.18774 2.3799 6.80924 1.70825 8.5 1.70825C10.1908 1.70825 11.8123 2.3799 13.0078 3.57545C14.2033 4.77099 14.875 6.3925 14.875 8.08325Z" stroke="white" stroke-width="2" stroke-linecap="round" stroke-linejoin="round"/>
<path d="M8.5 10.2083C9.6736 10.2083 10.625 9.25686 10.625 8.08325C10.625 6.90965 9.6736 5.95825 8.5 5.95825C7.32639 5.95825 6.375 6.90965 6.375 8.08325C6.375 9.25686 7.32639 10.2083 8.5 10.2083Z" stroke="white" stroke-width="2" stroke-linecap="round" stroke-linejoin="round"/>
</svg>
