<svg width="18" height="14" viewBox="0 0 18 14" fill="none" xmlns="http://www.w3.org/2000/svg">
<path fill-rule="evenodd" clip-rule="evenodd" d="M0.937533 1.37503C0.937533 1.06437 1.18937 0.812533 1.50003 0.812533H16.5C16.8107 0.812533 17.0625 1.06437 17.0625 1.37503V12.625C17.0625 12.9357 16.8107 13.1875 16.5 13.1875H1.50003C1.18937 13.1875 0.937533 12.9357 0.937533 12.625V1.37503ZM2.06253 1.93753V12.0625H15.9375V1.93753H2.06253Z" fill="white"/>
<path fill-rule="evenodd" clip-rule="evenodd" d="M1.05003 1.03753C1.23643 0.789005 1.589 0.738637 1.83753 0.925033L9.00003 6.29691L16.1625 0.925033C16.4111 0.738637 16.7636 0.789005 16.95 1.03753C17.1364 1.28606 17.0861 1.63864 16.8375 1.82503L9.33753 7.45003C9.13753 7.60003 8.86253 7.60003 8.66253 7.45003L1.16253 1.82503C0.914005 1.63864 0.863637 1.28606 1.05003 1.03753Z" fill="white"/>
<path fill-rule="evenodd" clip-rule="evenodd" d="M0.937533 1.37503C0.937533 1.06437 1.18937 0.812533 1.50003 0.812533H9.00003C9.31069 0.812533 9.56253 1.06437 9.56253 1.37503C9.56253 1.68569 9.31069 1.93753 9.00003 1.93753H2.06253V7.00003C2.06253 7.31069 1.81069 7.56253 1.50003 7.56253C1.18937 7.56253 0.937533 7.31069 0.937533 7.00003V1.37503Z" fill="white"/>
<path fill-rule="evenodd" clip-rule="evenodd" d="M8.43753 1.37503C8.43753 1.06437 8.68937 0.812533 9.00003 0.812533H16.5C16.8107 0.812533 17.0625 1.06437 17.0625 1.37503V7.00003C17.0625 7.31069 16.8107 7.56253 16.5 7.56253C16.1894 7.56253 15.9375 7.31069 15.9375 7.00003V1.93753H9.00003C8.68937 1.93753 8.43753 1.68569 8.43753 1.37503Z" fill="white"/>
</svg>
