<svg width="33" height="28" viewBox="0 0 33 28" fill="none" xmlns="http://www.w3.org/2000/svg">
<path fill-rule="evenodd" clip-rule="evenodd" d="M4.5415 3.69193C3.33824 4.29356 3.01043 4.92235 3.01043 5.29165C3.01043 5.66095 3.33824 6.28973 4.5415 6.89136C5.67934 7.46028 7.32779 7.84373 9.20835 7.84373C11.0889 7.84373 12.7374 7.46028 13.8752 6.89136C15.0785 6.28973 15.4063 5.66095 15.4063 5.29165C15.4063 4.92235 15.0785 4.29356 13.8752 3.69193C12.7374 3.12301 11.0889 2.73956 9.20835 2.73956C7.32779 2.73956 5.67934 3.12301 4.5415 3.69193ZM3.56322 1.73537C5.06445 0.984761 7.06183 0.552063 9.20835 0.552063C11.3549 0.552063 13.3523 0.984761 14.8535 1.73537C16.2893 2.45327 17.5938 3.64741 17.5938 5.29165C17.5938 6.93588 16.2893 8.13002 14.8535 8.84792C13.3523 9.59853 11.3549 10.0312 9.20835 10.0312C7.06183 10.0312 5.06445 9.59853 3.56322 8.84792C2.12742 8.13002 0.822932 6.93588 0.822932 5.29165C0.822932 3.64741 2.12742 2.45327 3.56322 1.73537Z" fill="#1C1B1E"/>
<path fill-rule="evenodd" clip-rule="evenodd" d="M1.9165 3.46873C2.52057 3.46873 3.01025 3.95842 3.01025 4.56248H0.822754C0.822754 3.95842 1.31244 3.46873 1.9165 3.46873ZM17.5936 4.56252V9.66665C17.5936 11.3109 16.2891 12.505 14.8533 13.2229C13.3521 13.9735 11.3547 14.4062 9.20817 14.4062C7.06165 14.4062 5.06427 13.9735 3.56304 13.2229C2.12724 12.505 0.822754 11.3109 0.822754 9.66665V4.56248H3.01025V9.66665C3.01025 10.0359 3.33806 10.6647 4.54132 11.2664C5.67916 11.8353 7.32761 12.2187 9.20817 12.2187C11.0887 12.2187 12.7372 11.8353 13.875 11.2664C15.0783 10.6647 15.4061 10.0359 15.4061 9.66665V4.56252H17.5936ZM17.5936 4.56252C17.5936 3.95846 17.1039 3.46873 16.4998 3.46873C15.8958 3.46873 15.4061 3.95846 15.4061 4.56252H17.5936Z" fill="#1C1B1E"/>
<path fill-rule="evenodd" clip-rule="evenodd" d="M1.9165 7.84373C2.52057 7.84373 3.01025 8.33342 3.01025 8.93748H0.822754C0.822754 8.33342 1.31244 7.84373 1.9165 7.84373ZM17.5936 8.93752V14.0416C17.5936 15.6859 16.2891 16.88 14.8533 17.5979C13.3521 18.3485 11.3547 18.7812 9.20817 18.7812C7.06165 18.7812 5.06427 18.3485 3.56304 17.5979C2.12724 16.88 0.822754 15.6859 0.822754 14.0416V8.93748H3.01025V14.0416C3.01025 14.4109 3.33806 15.0397 4.54132 15.6414C5.67916 16.2103 7.32761 16.5937 9.20817 16.5937C11.0887 16.5937 12.7372 16.2103 13.875 15.6414C15.0783 15.0397 15.4061 14.4109 15.4061 14.0416V8.93752H17.5936ZM17.5936 8.93752C17.5936 8.33346 17.1039 7.84373 16.4998 7.84373C15.8958 7.84373 15.4061 8.33346 15.4061 8.93752H17.5936Z" fill="#1C1B1E"/>
<path fill-rule="evenodd" clip-rule="evenodd" d="M1.9165 12.219C2.52057 12.219 3.01025 12.7087 3.01025 13.3127H0.822754C0.822754 12.7087 1.31244 12.219 1.9165 12.219ZM17.5936 13.3128V18.4169C17.5936 20.0611 16.2891 21.2553 14.8533 21.9732C13.3521 22.7238 11.3547 23.1565 9.20817 23.1565C7.06165 23.1565 5.06427 22.7238 3.56304 21.9732C2.12724 21.2553 0.822754 20.0611 0.822754 18.4169V13.3127H3.01025V18.4169C3.01025 18.7862 3.33806 19.415 4.54132 20.0166C5.67916 20.5855 7.32761 20.969 9.20817 20.969C11.0887 20.969 12.7372 20.5855 13.875 20.0166C15.0783 19.415 15.4061 18.7862 15.4061 18.4169V13.3128H17.5936ZM17.5936 13.3128C17.5936 12.7087 17.1039 12.219 16.4998 12.219C15.8958 12.219 15.4061 12.7087 15.4061 13.3128H17.5936Z" fill="#1C1B1E"/>
<path fill-rule="evenodd" clip-rule="evenodd" d="M1.9165 16.594C2.52057 16.594 3.01025 17.0837 3.01025 17.6877H0.822754C0.822754 17.0837 1.31244 16.594 1.9165 16.594ZM17.5936 17.6878V22.7919C17.5936 24.4361 16.2891 25.6303 14.8533 26.3482C13.3521 27.0988 11.3547 27.5315 9.20817 27.5315C7.06165 27.5315 5.06427 27.0988 3.56304 26.3482C2.12724 25.6303 0.822754 24.4361 0.822754 22.7919V17.6877H3.01025V22.7919C3.01025 23.1612 3.33806 23.79 4.54132 24.3916C5.67916 24.9605 7.32761 25.344 9.20817 25.344C11.0887 25.344 12.7372 24.9605 13.875 24.3916C15.0783 23.79 15.4061 23.1612 15.4061 22.7919V17.6878H17.5936ZM17.5936 17.6878C17.5936 17.0837 17.1039 16.594 16.4998 16.594C15.8958 16.594 15.4061 17.0837 15.4061 17.6878H17.5936Z" fill="#1C1B1E"/>
<path fill-rule="evenodd" clip-rule="evenodd" d="M19.1248 12.4421C17.9216 13.0437 17.5936 13.6723 17.5936 14.0416C17.5936 14.4109 17.9216 15.0399 19.1248 15.6415C20.2627 16.2105 21.9111 16.5939 23.7917 16.5939C25.6722 16.5939 27.3207 16.2105 28.4585 15.6415C29.6618 15.0399 29.9896 14.4111 29.9896 14.0418C29.9896 13.6725 29.6618 13.0437 28.4585 12.4421C27.3207 11.8732 25.6722 11.4897 23.7917 11.4897C21.9111 11.4897 20.2627 11.8732 19.1248 12.4421ZM18.1466 10.4856C19.6478 9.73494 21.6452 9.30224 23.7917 9.30224C25.9382 9.30224 27.9356 9.73494 29.4368 10.4856C30.8726 11.2035 32.1771 12.3976 32.1771 14.0418C32.1771 15.6861 30.8726 16.8802 29.4368 17.5981C27.9356 18.3487 25.9382 18.7814 23.7917 18.7814C21.6452 18.7814 19.6478 18.3487 18.1466 17.5981C16.7108 16.8802 15.4061 15.6859 15.4061 14.0416C15.4061 12.3974 16.7108 11.2035 18.1466 10.4856Z" fill="#1C1B1E"/>
<path fill-rule="evenodd" clip-rule="evenodd" d="M16.4998 12.219C17.1039 12.219 17.5936 12.7087 17.5936 13.3128H15.4061C15.4061 12.7087 15.8958 12.219 16.4998 12.219ZM32.1771 13.3128V18.4169C32.1771 20.0611 30.8726 21.2553 29.4368 21.9732C27.9356 22.7238 25.9382 23.1565 23.7917 23.1565C21.6452 23.1565 19.6478 22.7238 18.1466 21.9732C16.7108 21.2553 15.4061 20.0611 15.4061 18.4169V13.3128H17.5936V18.4169C17.5936 18.7862 17.9216 19.415 19.1248 20.0166C20.2627 20.5855 21.9111 20.969 23.7917 20.969C25.6722 20.969 27.3207 20.5855 28.4585 20.0166C29.6618 19.415 29.9896 18.7862 29.9896 18.4169V13.3128H32.1771ZM32.1771 13.3128C32.1771 12.7087 31.6874 12.219 31.0833 12.219C30.4793 12.219 29.9896 12.7087 29.9896 13.3128H32.1771Z" fill="#1C1B1E"/>
<path fill-rule="evenodd" clip-rule="evenodd" d="M16.4998 16.594C17.1039 16.594 17.5936 17.0837 17.5936 17.6878H15.4061C15.4061 17.0837 15.8958 16.594 16.4998 16.594ZM32.1771 17.6878V22.7919C32.1771 24.4361 30.8726 25.6303 29.4368 26.3482C27.9356 27.0988 25.9382 27.5315 23.7917 27.5315C21.6452 27.5315 19.6478 27.0988 18.1466 26.3482C16.7108 25.6303 15.4061 24.4361 15.4061 22.7919V17.6878H17.5936V22.7919C17.5936 23.1612 17.9216 23.79 19.1248 24.3916C20.2627 24.9605 21.9111 25.344 23.7917 25.344C25.6722 25.344 27.3207 24.9605 28.4585 24.3916C29.6618 23.79 29.9896 23.1612 29.9896 22.7919V17.6878H32.1771ZM32.1771 17.6878C32.1771 17.0837 31.6874 16.594 31.0833 16.594C30.4793 16.594 29.9896 17.0837 29.9896 17.6878H32.1771Z" fill="#1C1B1E"/>
</svg>
