<svg width="15" height="15" viewBox="0 0 15 15" fill="none" xmlns="http://www.w3.org/2000/svg">
<path d="M1.16687 6.21715C2.76387 9.6954 5.60554 12.4608 9.13849 13.96L9.70482 14.2123C11.0005 14.7896 12.5236 14.351 13.3139 13.1731L14.054 12.07C14.2946 11.7114 14.2213 11.2283 13.8852 10.9571L11.3753 8.93231C11.0067 8.6349 10.4646 8.70418 10.1826 9.08473L9.40612 10.1324C7.41378 9.14966 5.79624 7.53211 4.81345 5.53977L5.86116 4.76334C6.24171 4.48132 6.31098 3.93923 6.01358 3.57057L3.98868 1.06062C3.71756 0.724554 3.23464 0.651248 2.87601 0.891722L1.7653 1.63647C0.580017 2.43123 0.143866 3.96693 0.734476 5.26606L1.16622 6.21574L1.16687 6.21715Z" fill="white"/>
</svg>
