<svg width="15" height="15" viewBox="0 0 15 15" fill="none" xmlns="http://www.w3.org/2000/svg">
<path d="M6.16488 3.926L6.16518 3.92667C6.2625 4.14168 6.42269 4.52845 6.54947 4.83456L6.55282 4.84265C6.60316 4.96419 6.64837 5.07335 6.68358 5.15724C6.70121 5.19925 6.71577 5.23357 6.72688 5.25924C6.73732 5.28335 6.7415 5.2923 6.74145 5.29233C6.74143 5.29233 6.74111 5.2917 6.74052 5.29054C6.82401 5.45536 6.9168 5.73983 6.75761 6.06328L6.16488 3.926ZM6.16488 3.926C6.0693 3.71566 5.9384 3.53439 5.74355 3.42241M6.16488 3.926L5.74355 3.42241M11.8487 8.78308C11.7675 8.64749 11.6534 8.56947 11.5844 8.5277C11.5187 8.4879 11.443 8.45195 11.386 8.42493C11.3825 8.42325 11.379 8.42161 11.3757 8.42C11.343 8.40446 11.3112 8.38935 11.2777 8.37278L11.2776 8.37275C11.181 8.32507 10.8993 8.18791 10.6198 8.05449C10.3545 7.9279 10.0512 7.78523 9.93682 7.7429L9.93677 7.74288C9.93456 7.74207 9.93227 7.74121 9.92988 7.74033C9.84973 7.71059 9.67182 7.64458 9.47372 7.66773C9.21803 7.6976 9.04018 7.85132 8.92391 8.02525C8.83856 8.1496 8.61097 8.41872 8.46062 8.59364C8.44284 8.5859 8.42528 8.57839 8.4088 8.57135L8.40095 8.56799L8.39987 8.56753C8.15072 8.46095 7.68249 8.26065 7.1375 7.77961L7.13664 7.77885C6.73179 7.42315 6.42658 6.99191 6.271 6.7485C6.31438 6.69994 6.35605 6.64999 6.39055 6.60863L6.39851 6.5991C6.43494 6.55544 6.46642 6.51778 6.4957 6.48446L6.49581 6.48433C6.62378 6.33862 6.68349 6.21569 6.73443 6.11082L6.7379 6.10367L6.73791 6.10366L6.75757 6.06337L11.4196 9.03982M11.8487 8.78308L11.4196 9.03982M11.8487 8.78308C11.8486 8.78303 11.8486 8.78298 11.8486 8.78293L11.4196 9.03982M11.8487 8.78308C11.9248 8.91027 11.9381 9.05115 11.9429 9.11089C11.9498 9.19736 11.9481 9.29341 11.9395 9.39288C11.9223 9.59289 11.8742 9.83749 11.7815 10.0969L11.7803 10.1003C11.6417 10.4796 11.2895 10.7688 11.0113 10.9465C10.7261 11.1286 10.3674 11.2886 10.0786 11.3155M11.4196 9.03982C11.4668 9.11866 11.4668 9.49144 11.3106 9.92873C11.1508 10.366 10.3808 10.7854 10.0321 10.8176M10.0786 11.3155L10.0321 10.8176M10.0786 11.3155C10.0784 11.3155 10.0783 11.3155 10.0781 11.3155L10.0321 10.8176M10.0786 11.3155C10.0532 11.3179 10.0269 11.321 9.99193 11.3252L9.93238 10.8287M10.0321 10.8176C9.99905 10.8207 9.9662 10.8247 9.93238 10.8287M9.93238 10.8287L9.99192 11.3252C9.81005 11.347 9.57571 11.3739 9.18726 11.3093C8.81706 11.2478 8.3182 11.1055 7.5801 10.8175M9.93238 10.8287C9.61282 10.8671 9.20716 10.9157 7.76188 10.3517M7.5801 10.8175C5.65445 10.0666 4.40788 8.23929 4.16014 7.87613L4.15473 7.8682L4.55219 7.59697L4.15473 7.8682L4.13265 7.83594L4.12774 7.8289L4.12585 7.82639L4.12581 7.82635L4.12575 7.82626C4.06614 7.74719 3.85311 7.46458 3.65439 7.07522C3.4591 6.6926 3.25545 6.16463 3.25545 5.59888C3.25545 4.53564 3.79774 3.96402 4.02051 3.73059L4.02052 3.73059L4.05141 3.69804L7.5801 10.8175ZM7.5801 10.8175L4.38223 4.0758C4.18589 4.28152 3.75545 4.73255 3.75545 5.59888C3.75545 6.50436 4.41698 7.38196 4.52512 7.52542L4.52914 7.53076C4.53605 7.53994 4.54897 7.55887 4.56773 7.58637C4.80541 7.93467 5.98099 9.65735 7.76188 10.3517M7.5801 10.8175L7.76188 10.3517M7.5801 10.8175C7.58015 10.8175 7.5802 10.8175 7.58025 10.8175L7.76188 10.3517M5.7532 6.86052L6.0438 6.69052L6.04398 6.69041L6.18478 6.60804C6.1848 6.60808 6.18482 6.60812 6.18484 6.60815L5.7532 6.86052ZM5.7532 6.86052C5.64424 6.67416 5.74235 6.57371 5.83678 6.48059M5.7532 6.86052C5.86223 7.04688 6.24362 7.65982 6.80663 8.15447L5.83678 6.48059M5.83678 6.48059C5.89002 6.42802 5.95213 6.3536 6.01465 6.2787M5.83678 6.48059L6.01465 6.2787M5.74355 3.42241C5.55924 3.31649 5.37879 3.31228 5.30692 3.31061M5.74355 3.42241L5.30692 3.31061M5.30692 3.31061C5.30425 3.31055 5.30173 3.31049 5.29936 3.31043M5.30692 3.31061L5.29936 3.31043M5.29936 3.31043C5.18257 3.30664 5.04939 3.30664 4.92649 3.30664H4.92144C4.68122 3.30664 4.33627 3.39351 4.05142 3.69803L5.29936 3.31043ZM6.0147 6.27864C6.05023 6.23608 6.08589 6.19335 6.12012 6.1544L6.0147 6.27864ZM6.0147 6.27864L6.01465 6.2787M6.0147 6.27864L6.01465 6.2787M4.34074 13.1622C4.22988 13.1026 4.10065 13.0871 3.97883 13.1186L0.942367 13.905L1.74911 11.0017C1.78528 10.8715 1.76724 10.7322 1.6991 10.6156C1.10311 9.59534 0.789858 8.43885 0.790284 7.26215V7.26197C0.790284 3.56584 3.84361 0.546631 7.60205 0.546631C9.4291 0.546631 11.1371 1.24804 12.4233 2.51725C13.7087 3.78578 14.4139 5.47148 14.4139 7.26554C14.4139 10.9616 11.3606 13.9808 7.60211 13.9808H7.59849C6.45713 13.9808 5.33608 13.6967 4.34074 13.1622Z" fill="white" stroke="white" stroke-linejoin="round"/>
</svg>
